<?xml version="1.0" encoding="UTF-8" standalone="no"?>
<svg
   xmlns:dc="http://purl.org/dc/elements/1.1/"
   xmlns:cc="http://creativecommons.org/ns#"
   xmlns:rdf="http://www.w3.org/1999/02/22-rdf-syntax-ns#"
   xmlns:svg="http://www.w3.org/2000/svg"
   xmlns="http://www.w3.org/2000/svg"
   xmlns:sodipodi="http://sodipodi.sourceforge.net/DTD/sodipodi-0.dtd"
   xmlns:inkscape="http://www.inkscape.org/namespaces/inkscape"
   width="1024"
   height="1024"
   viewBox="0 0 1024 1024"
   version="1.1"
   id="svg930"
   sodipodi:docname="icon_round(BG_727988_trim_no_scale_67).svg"
   inkscape:version="0.92.3 (2405546, 2018-03-11)">
  <metadata
     id="metadata936">
    <rdf:RDF>
      <cc:Work
         rdf:about="">
        <dc:format>image/svg+xml</dc:format>
        <dc:type
           rdf:resource="http://purl.org/dc/dcmitype/StillImage" />
        <dc:title />
      </cc:Work>
    </rdf:RDF>
  </metadata>
  <defs
     id="defs934" />
  <sodipodi:namedview
     pagecolor="#ffffff"
     bordercolor="#666666"
     borderopacity="1"
     objecttolerance="10"
     gridtolerance="10"
     guidetolerance="10"
     inkscape:pageopacity="0"
     inkscape:pageshadow="2"
     inkscape:window-width="3840"
     inkscape:window-height="2035"
     id="namedview932"
     showgrid="false"
     inkscape:zoom="1.231222"
     inkscape:cx="-243.01141"
     inkscape:cy="659.64957"
     inkscape:window-x="3840"
     inkscape:window-y="0"
     inkscape:window-maximized="1"
     inkscape:current-layer="svg930" />
  <path
     inkscape:connector-curvature="0"
     style="fill:#ffda00;fill-opacity:1;stroke:none;stroke-width:3.88274288;stroke-linecap:round;stroke-linejoin:round;stroke-miterlimit:4;stroke-dasharray:none;stroke-opacity:1;paint-order:markers fill stroke"
     d="m 514.2475,186.07654 c -6.84233,0.0741 -14.05797,0.47859 -19.44292,1.1902 -18.3407,2.4237 -30.58173,8.08385 -42.06124,19.45053 -9.65411,9.55923 -15.70331,18.48052 -31.66107,46.69586 -34.71233,61.3758 -48.61725,85.96893 -62.4846,110.51354 -14.8851,26.34599 -27.63033,48.82621 -42.8015,75.49164 -4.38362,7.70482 -17.69641,31.16949 -29.58468,52.14371 -25.58767,45.14372 -72.2769,126.99105 -81.24352,142.4224 -9.25564,15.92877 -12.55674,25.82105 -12.51454,37.50565 0.0624,17.29733 11.32415,34.40677 28.00383,42.54313 4.06642,1.98355 9.49481,4.15862 12.06309,4.83374 9.01254,2.36911 35.06404,2.7176 185.61606,2.48071 134.49136,-0.21158 149.43022,-0.35735 153.05664,-1.48963 6.7717,-2.11451 11.28398,-4.74287 15.82066,-9.21453 10.85509,-10.69958 15.67447,-29.45666 13.2989,-51.75462 -2.68098,-25.16445 -9.21051,-36.69364 -23.79939,-42.02475 -3.63103,-1.32686 -9.22746,-1.463 -83.66342,-2.02623 -110.29361,-0.83455 -111.78846,-0.86646 -115.57227,-2.52175 -7.90171,-3.45671 -12.81406,-9.13588 -14.43285,-16.68404 -1.51152,-7.04799 -0.32498,-10.11089 13.19402,-34.02627 12.01498,-21.25479 22.36307,-39.66712 37.83398,-67.31987 4.19088,-7.4908 11.54595,-20.62402 16.34507,-29.18492 4.79913,-8.56091 19.67191,-35.17756 33.0504,-59.1481 35.39717,-63.4219 38.94504,-69.53374 42.81214,-73.74054 2.81879,-3.0664 4.12837,-3.89094 6.70949,-4.23029 2.88746,-0.3796 3.52769,-0.13262 6.42372,2.48375 4.32931,3.91128 6.43901,7.45037 33.39696,56.03047 12.82662,23.11446 30.94323,55.68482 40.25847,72.37859 9.31525,16.69377 19.64434,35.25538 22.95424,41.24802 5.05788,9.15737 30.42167,54.6955 43.56457,78.21557 13.1774,23.58183 43.54178,78.05066 54.66548,98.06131 7.25734,13.05538 14.91025,25.98994 17.00628,28.74257 6.3285,8.31095 13.63313,13.46547 22.71555,16.02896 5.43378,1.53359 17.0342,0.97463 24.69777,-1.18874 7.10095,-2.00453 19.94434,-8.02545 26.24821,-12.30625 15.51509,-10.53611 24.68507,-25.46223 25.70701,-41.84239 0.79126,-12.68211 -1.5233,-18.50862 -22.54531,-56.75402 C 789.88825,576.34264 746.90058,499.53256 729.04544,468.2141 718.84116,450.3155 646.33106,322.78917 638.33051,308.6699 612.24992,262.64321 594.4383,231.6334 590.80622,225.92916 c -13.45284,-21.12802 -34.86445,-35.21888 -59.35026,-39.05915 -3.89629,-0.61108 -10.36612,-0.86758 -17.20846,-0.79347 z"
     id="rect942-3-3" />
</svg>
